<svg xmlns="http://www.w3.org/2000/svg" width="900" height="570" viewBox="0 0 900 570" role="img"><style>text{font-family:Inter,Arial,sans-serif}</style><rect width="100%" height="100%" fill="white" rx="18"/><text x="46.0" y="42.0" fill="#172033" font-size="24" font-weight="700" text-anchor="start">Model drivers</text><text x="46.0" y="66.0" fill="#667085" font-size="13" font-weight="400" text-anchor="start">Standardized logistic coefficients; direction is associative in synthetic data</text><text x="250.0" y="108.0" fill="#172033" font-size="12" font-weight="400" text-anchor="end">days past due</text><rect x="265" y="90" width="520" height="23" rx="5" fill="#F4F7FB"/><rect x="265" y="90" width="520.0" height="23" rx="5" fill="#E76F51"/><text x="793.0" y="107.0" fill="#172033" font-size="11" font-weight="600" text-anchor="start">+0.27</text><text x="250.0" y="147.0" fill="#172033" font-size="12" font-weight="400" text-anchor="end">missed payments 3m</text><rect x="265" y="129" width="520" height="23" rx="5" fill="#F4F7FB"/><rect x="265" y="129" width="253.9" height="23" rx="5" fill="#E76F51"/><text x="526.9" y="146.0" fill="#172033" font-size="11" font-weight="600" text-anchor="start">+0.13</text><text x="250.0" y="186.0" fill="#172033" font-size="12" font-weight="400" text-anchor="end">payment ratio</text><rect x="265" y="168" width="520" height="23" rx="5" fill="#F4F7FB"/><rect x="265" y="168" width="235.8" height="23" rx="5" fill="#0F8B8D"/><text x="508.8" y="185.0" fill="#172033" font-size="11" font-weight="600" text-anchor="start">-0.12</text><text x="250.0" y="225.0" fill="#172033" font-size="12" font-weight="400" text-anchor="end">dti pct</text><rect x="265" y="207" width="520" height="23" rx="5" fill="#F4F7FB"/><rect x="265" y="207" width="217.3" height="23" rx="5" fill="#E76F51"/><text x="490.3" y="224.0" fill="#172033" font-size="11" font-weight="600" text-anchor="start">+0.11</text><text x="250.0" y="264.0" fill="#172033" font-size="12" font-weight="400" text-anchor="end">bureau score</text><rect x="265" y="246" width="520" height="23" rx="5" fill="#F4F7FB"/><rect x="265" y="246" width="197.7" height="23" rx="5" fill="#0F8B8D"/><text x="470.7" y="263.0" fill="#172033" font-size="11" font-weight="600" text-anchor="start">-0.10</text><text x="250.0" y="303.0" fill="#172033" font-size="12" font-weight="400" text-anchor="end">hardship flag</text><rect x="265" y="285" width="520" height="23" rx="5" fill="#F4F7FB"/><rect x="265" y="285" width="157.3" height="23" rx="5" fill="#E76F51"/><text x="430.3" y="302.0" fill="#172033" font-size="11" font-weight="600" text-anchor="start">+0.08</text><text x="250.0" y="342.0" fill="#172033" font-size="12" font-weight="400" text-anchor="end">income drop flag</text><rect x="265" y="324" width="520" height="23" rx="5" fill="#F4F7FB"/><rect x="265" y="324" width="132.0" height="23" rx="5" fill="#E76F51"/><text x="405.0" y="341.0" fill="#172033" font-size="11" font-weight="600" text-anchor="start">+0.07</text><text x="250.0" y="381.0" fill="#172033" font-size="12" font-weight="400" text-anchor="end">account age months</text><rect x="265" y="363" width="520" height="23" rx="5" fill="#F4F7FB"/><rect x="265" y="363" width="95.0" height="23" rx="5" fill="#E76F51"/><text x="368.0" y="380.0" fill="#172033" font-size="11" font-weight="600" text-anchor="start">+0.05</text><text x="250.0" y="420.0" fill="#172033" font-size="12" font-weight="400" text-anchor="end">utilization pct</text><rect x="265" y="402" width="520" height="23" rx="5" fill="#F4F7FB"/><rect x="265" y="402" width="87.5" height="23" rx="5" fill="#E76F51"/><text x="360.5" y="419.0" fill="#172033" font-size="11" font-weight="600" text-anchor="start">+0.05</text><text x="250.0" y="459.0" fill="#172033" font-size="12" font-weight="400" text-anchor="end">log outstanding balance eur</text><rect x="265" y="441" width="520" height="23" rx="5" fill="#F4F7FB"/><rect x="265" y="441" width="49.1" height="23" rx="5" fill="#E76F51"/><text x="322.1" y="458.0" fill="#172033" font-size="11" font-weight="600" text-anchor="start">+0.03</text><text x="46.0" y="536.0" fill="#667085" font-size="11" font-weight="400" text-anchor="start">Positive coefficients increase estimated risk; negative coefficients reduce it, holding other features constant.</text></svg>